<svg id="Layer_1" data-name="Layer 1" xmlns="http://www.w3.org/2000/svg" viewBox="0 0 152 105"><defs><style>.cls-1{fill:#fff;}</style></defs><title>Artboard 1</title><path class="cls-1" d="M8.06,14.86a52.62,52.62,0,0,1,6.16-1.61c1-.2,2-.37,3-.52.47-.07.11,0,0,0l.86-.1c.58-.07,1.15-.12,1.73-.17a83.32,83.32,0,0,1,12.44,0c8.67.56,16.26,1.94,24.94,3.13S74.84,17.68,83.72,17C88.48,16.62,93.2,15.9,98,15.4s9.36-.76,14-.9c10.73-.32,21.45.12,32.16.55a4,4,0,0,0,4-4,4.09,4.09,0,0,0-4-4c-9.56-.38-19.13-.77-28.7-.63-4.77.07-9.55.28-14.31.68S91.66,8.19,86.91,8.69A113.31,113.31,0,0,1,60.5,8L58,7.65,54.86,7.2l-6.69-1C43.76,5.59,39.34,5,34.91,4.62c-9.71-.84-19.64-.51-29,2.53a4.07,4.07,0,0,0-2.8,4.92,4.07,4.07,0,0,0,4.92,2.79Z"/><path class="cls-1" d="M9.68,47l29.18,8.52c2.5.73,5.1,1.53,7.73,1.28A19.86,19.86,0,0,0,54.17,54l13.34-7.21,6.57-3.55,1.51-.82c.26-.14.52-.28.79-.41s.15-.08.06,0a4.81,4.81,0,0,1,.84-.26c-.24,0-.43-.05.22,0-.79-.1.94.36.36.11,2.08.9,3.93,2.48,5.85,3.67s4,2.36,6,3.44c8.58,4.52,18.17,8.82,28.07,7.13,4.59-.78,8.9-2.89,13-5.06,2-1.08,4-2.19,6-3.23,1-.52,2-1,3.06-1.49l.72-.32c-.39.17-.05,0,.15-.06.61-.24,1.23-.47,1.86-.68a4.08,4.08,0,0,0,2.79-4.92c-.63-2-2.8-3.52-4.92-2.8A74.08,74.08,0,0,0,129,42.88c-1.75.95-3.51,1.91-5.3,2.78l-1.43.68-.54.23c-.61.27.49-.19-.12.06-.91.36-1.82.7-2.75,1a25.24,25.24,0,0,1-2.82.7c-.2,0-1.4.19-.67.12-.55,0-1.09.09-1.64.11a19.57,19.57,0,0,1-6.22-.77,60.19,60.19,0,0,1-12.33-5c-4.11-2.08-7.94-4.55-11.83-7a10.92,10.92,0,0,0-7.79-1.86c-2.44.41-4.72,2-6.86,3.12L55.6,44.14c-2.17,1.17-4.34,2.36-6.52,3.52a9.68,9.68,0,0,1-2.48,1.09,4.84,4.84,0,0,1-2.3,0c-5.46-1.26-10.84-3.1-16.23-4.67L11.81,39.3A4,4,0,0,0,9.68,47Z"/><path class="cls-1" d="M19.23,90c0-.27.12-.53.17-.8.17-.84-.45.66,0,0a3.47,3.47,0,0,0,.27-.46c-.43.82-.19.24.06,0s.39-.36.6-.54c-.7.61-.35.25-.15.14s.48-.26.72-.4c.4-.18.34-.15-.19.08l.53-.17.53-.13c.88-.25-.88,0,0,0,.27,0,.55,0,.82,0,.8,0-.28,0-.26,0a5.49,5.49,0,0,1,.78.19c.84.18-.67-.47,0,0,.14.09.31.2.46.28-.89-.5,0,.09.29.37-.51-.58.24.38.27.43.14.21.27.44.4.66.4.65.78,1.32,1.24,1.94a11.12,11.12,0,0,0,3.85,3.46,13.35,13.35,0,0,0,9.71.55,28,28,0,0,0,8.07-4.33c1.08-.77,2.17-1.53,3.31-2.2.34-.2.68-.39,1-.57,0,0,1.2-.55.46-.25a11.15,11.15,0,0,1,2.25-.66c-.79.14.41,0,.51,0-.65,0-.06,0,.09.06l-.29-.09c-.34-.3-.34-.29,0,0,.46,1-.32-.68.22.32a33.25,33.25,0,0,0,2.08,3.5,20.87,20.87,0,0,0,7.45,6.55c3.44,1.73,7.65,3,10.69-.23,2.35-2.46,3.07-6,5-8.73-.44.62.33-.36.36-.39s.85-.81.46-.47.59-.39.53-.35l.33-.18c-.39.13-.37.13.07,0l.36-.09h-.16c.17,0,1,0,.29,0l.4.12.2.1c.38.22.74.44,1.09.68A47.64,47.64,0,0,0,93,93.4a16.93,16.93,0,0,0,9.7,1.22,13.58,13.58,0,0,0,7.48-4.55c.78-.87,1.49-1.8,2.23-2.7.34-.4.67-.8,1-1.18.2-.22.41-.44.63-.65s1-.78.49-.46.27-.15.31-.17c.24-.14,1-.4.07-.1a3.16,3.16,0,0,0,.7-.21c.34-.26-.82,0-.06,0,.06,0,.79,0,.8,0-.12.23-1-.26-.17,0l.61.19c-.56-.25-.64-.28-.25-.1l.47.24c.31.18,1.57,1.16.74.45.43.37.86.74,1.28,1.12.93.87,1.81,1.78,2.74,2.64,2,1.87,4.43,3.69,7.22,4.14,3.54.57,6.64-.59,9.69-2.31,1.16-.65,2.31-1.31,3.49-1.92.93-.47-.76.2.22-.09.3-.08.59-.19.9-.27s1.13-.07.14-.06c.24,0,1.56.08.5-.07,2.06.3,4.4-.51,4.92-2.8.43-1.9-.58-4.59-2.8-4.92a13.93,13.93,0,0,0-9.08,1.9c-1.08.58-2.12,1.23-3.2,1.8-.29.16-.59.3-.88.45-.93.49.76-.21-.23.1-.25.08-.5.17-.76.24s-1.34.18-.31.12l-.94,0c-1,0,.77.26-.07,0-.35-.12-1.5-.69-.56-.14-.48-.28-.95-.55-1.42-.84-.17-.11-.58-.46.13.12-.29-.24-.59-.48-.87-.74-1.85-1.64-3.5-3.45-5.48-4.94a10.53,10.53,0,0,0-7.1-2.32,11.67,11.67,0,0,0-7.74,4.14c-1.56,1.73-2.88,3.62-4.6,5.2.7-.64,0,0-.18.11a8.53,8.53,0,0,1-1,.57c.73-.33-.39.09-.47.11l-.72.16c.87-.16-.3,0-.42,0-.38,0-.76,0-1.13,0-1.14-.06.66.22-.47-.08-.38-.1-.76-.17-1.14-.28s-.77-.23-1.15-.37c0,0-1.22-.5-.57-.21-.63-.28-1.25-.6-1.86-.93a38.25,38.25,0,0,1-4.19-2.69C86.53,80,83.07,78.45,79.23,80c-3.61,1.43-5.89,4.46-7.54,7.87a28.12,28.12,0,0,1-2.27,4.31l.19-.23c-.38.35-.33.35.17,0-.14,0,1.18-.53,1.07-.25a7.39,7.39,0,0,1-1.09-.31l-.71-.26c.37.16.34.15-.09,0a18,18,0,0,1-1.67-.91c-.32-.2-.63-.42-.94-.64.64.46-.34-.28-.38-.32a15.39,15.39,0,0,1-1.36-1.32c-.26-.28-.51-.57-.74-.87.44.58-.29-.45-.37-.58-1.87-2.92-3.17-6.09-7-6.81-7-1.32-12.26,4.8-17.94,7.67-1,.52.7-.18-.4.16-.4.13-.8.28-1.22.39l-.88.2c-.47.08-.47.09,0,0-.23,0-.46,0-.7,0s-.69,0-1,0c-1,0,.65.23-.27-.07-.15,0-1.13-.45-.3,0-.2-.1-1.21-.86-.6-.3-.18-.16-.35-.33-.52-.51q-.46-.53-.09-.09l-.42-.64c-.44-.71-.84-1.44-1.31-2.13A10.57,10.57,0,0,0,27,80.72c-5.77-2.91-14.36.32-15.48,7.11-.34,2,.54,4.4,2.8,4.92,1.93.44,4.55-.59,4.92-2.8Z"/></svg>